<svg xmlns="http://www.w3.org/2000/svg" viewBox="0 0 512 512" role="img" aria-labelledby="title desc">
  <title id="title">py-scdrs sticker</title>
  <desc id="desc">OmicVerse repository hex sticker for py-scdrs.</desc>
  <defs>
    <linearGradient id="bg" x1="112" y1="90" x2="398" y2="430" gradientUnits="userSpaceOnUse">
      <stop offset="0" stop-color="#050706"/>
      <stop offset=".58" stop-color="#020403"/>
      <stop offset="1" stop-color="#000000"/>
    </linearGradient>
  </defs>
  <polygon points="256,34 450,146 450,368 256,480 62,368 62,146" fill="#000000" opacity=".34"/>
  <polygon points="256,22 458,139 458,373 256,490 54,373 54,139" fill="url(#bg)" stroke="#0B0F0A" stroke-width="19" stroke-linejoin="round"/>
  <polygon points="256,22 458,139 458,373 256,490 54,373 54,139" fill="none" stroke="#E8FFE0" stroke-width="12" stroke-linejoin="round"/>
  <g opacity=".22" stroke="#3FD36B" stroke-width="2.2">
    <path d="M112 166h288M100 222h312M100 278h312M112 334h288"/>
    <path d="M152 126v236M204 104v274M256 96v286M308 104v274M360 126v236"/>
  </g>
  
  <g id="motif">
    <path d="M145 308c58-42 103-45 156-16 29 16 59 15 91-5" fill="none" stroke="#FFFFFF" stroke-width="5" opacity=".55"/>
    <circle cx="164" cy="190" r="12" fill="#30D158" stroke="#16362f" stroke-width="4"/><circle cx="198" cy="175" r="15" fill="#30D158" stroke="#16362f" stroke-width="4"/><circle cx="236" cy="205" r="11" fill="#00C7BE" stroke="#16362f" stroke-width="4"/><circle cx="174" cy="246" r="14" fill="#FFD60A" stroke="#16362f" stroke-width="4"/><circle cx="226" cy="260" r="18" fill="#FF6961" stroke="#16362f" stroke-width="4"/><circle cx="286" cy="198" r="13" fill="#30D158" stroke="#16362f" stroke-width="4"/><circle cx="326" cy="230" r="17" fill="#FFD60A" stroke="#16362f" stroke-width="4"/><circle cx="294" cy="280" r="14" fill="#FF6961" stroke="#16362f" stroke-width="4"/><circle cx="357" cy="270" r="11" fill="#00C7BE" stroke="#16362f" stroke-width="4"/>
    <path d="M333 149l31 31M364 149l-31 31" stroke="#FF6961" stroke-width="7" stroke-linecap="round"/>
  </g>
  <path id="label" d="M306.11,383.99 L310.31,391.25 L305.89,393.80 L294.86,374.70 L299.28,372.15 L300.45,374.17 Q300.67,372.43 301.45,371.22 Q302.23,370.01 303.67,369.17 Q306.23,367.69 309.05,368.78 Q311.86,369.86 313.71,373.06 Q315.56,376.26 315.09,379.24 Q314.62,382.22 312.06,383.70 Q310.61,384.54 309.17,384.60 Q307.73,384.67 306.11,383.99 Z M303.88,373.33 Q302.46,374.15 302.30,375.63 Q302.15,377.12 303.28,379.08 Q304.41,381.05 305.78,381.65 Q307.14,382.25 308.56,381.43 Q309.98,380.62 310.13,379.15 Q310.28,377.67 309.14,375.70 Q308.00,373.72 306.65,373.12 Q305.30,372.51 303.88,373.33 Z M311.15,365.29 L315.58,362.74 L324.72,369.98 L322.46,358.77 L326.88,356.21 L329.81,374.72 Q330.27,377.54 329.63,379.13 Q328.99,380.73 327.08,381.83 L324.52,383.31 L322.84,380.41 L324.23,379.61 Q325.35,378.96 325.65,378.30 Q325.96,377.65 325.71,376.56 L325.62,376.10 L311.15,365.29 Z M331.46,359.91 L339.21,355.44 L341.29,359.03 L333.53,363.51 L331.46,359.91 Z M351.03,342.85 L352.97,346.21 Q351.20,346.44 349.71,346.90 Q348.22,347.37 347.04,348.05 Q345.78,348.78 345.35,349.45 Q344.93,350.11 345.30,350.77 Q345.61,351.30 346.24,351.32 Q346.86,351.33 348.14,350.78 L348.98,350.44 Q352.63,348.91 354.37,349.22 Q356.12,349.53 357.34,351.64 Q358.61,353.85 357.63,355.91 Q356.64,357.96 353.40,359.83 Q352.03,360.62 350.44,361.25 Q348.85,361.88 347.06,362.34 L345.12,358.98 Q346.81,358.86 348.38,358.38 Q349.96,357.90 351.39,357.07 Q352.69,356.32 353.14,355.59 Q353.59,354.85 353.18,354.14 Q352.84,353.55 352.22,353.52 Q351.60,353.49 350.16,354.11 L349.33,354.46 Q346.16,355.79 344.39,355.48 Q342.63,355.16 341.45,353.12 Q340.18,350.92 341.08,348.99 Q341.97,347.06 345.09,345.26 Q346.31,344.55 347.76,343.96 Q349.22,343.37 351.03,342.85 Z M366.46,333.94 L368.54,337.55 Q367.29,337.45 366.20,337.68 Q365.12,337.91 364.15,338.47 Q362.30,339.54 361.89,341.22 Q361.48,342.89 362.60,344.83 Q363.72,346.77 365.38,347.26 Q367.03,347.74 368.88,346.68 Q369.92,346.08 370.68,345.23 Q371.43,344.38 371.87,343.32 L373.96,346.94 Q373.15,347.92 372.19,348.73 Q371.23,349.54 370.16,350.16 Q366.41,352.32 363.19,351.62 Q359.97,350.92 357.99,347.49 Q356.01,344.07 357.02,340.93 Q358.02,337.79 361.77,335.63 Q362.86,335.00 364.02,334.58 Q365.19,334.16 366.46,333.94 Z M374.40,327.43 L380.90,338.69 L382.60,337.70 Q385.51,336.02 386.22,333.69 Q386.92,331.35 385.33,328.59 Q383.75,325.85 381.39,325.31 Q379.03,324.75 376.10,326.45 L374.40,327.43 Z M367.56,326.58 L372.58,323.68 Q376.78,321.26 379.18,320.67 Q381.58,320.08 383.88,320.67 Q385.90,321.17 387.47,322.44 Q389.05,323.70 390.24,325.76 Q391.44,327.85 391.76,329.86 Q392.07,331.85 391.49,333.85 Q390.84,336.14 389.11,337.94 Q387.38,339.74 383.23,342.13 L378.22,345.03 L367.56,326.58 Z M400.05,318.73 Q401.54,317.87 401.87,316.94 Q402.20,316.01 401.46,314.74 Q400.73,313.47 399.77,313.31 Q398.81,313.14 397.32,314.00 L395.32,315.15 L398.05,319.89 L400.05,318.73 Z M399.94,323.17 L403.98,330.15 L399.22,332.90 L388.57,314.45 L395.83,310.26 Q399.48,308.15 401.88,308.40 Q404.29,308.64 405.81,311.29 Q406.87,313.11 406.66,314.80 Q406.46,316.48 405.00,318.07 Q406.10,317.72 407.33,318.06 Q408.56,318.40 410.27,319.54 L415.87,323.28 L410.81,326.21 L405.91,322.93 Q404.43,321.93 403.44,321.83 Q402.45,321.72 401.29,322.40 L399.94,323.17 Z M421.22,296.37 L423.48,300.28 Q421.57,300.48 419.92,300.97 Q418.28,301.45 416.99,302.20 Q415.29,303.18 414.74,304.12 Q414.20,305.06 414.77,306.05 Q415.20,306.79 415.99,306.89 Q416.77,306.98 418.39,306.44 L420.65,305.68 Q424.08,304.53 426.11,305.04 Q428.14,305.55 429.48,307.87 Q431.24,310.92 430.29,313.45 Q429.34,315.99 425.62,318.14 Q423.87,319.15 421.90,319.83 Q419.95,320.52 417.80,320.89 L415.48,316.87 Q417.79,316.79 419.72,316.32 Q421.64,315.84 423.17,314.95 Q424.73,314.05 425.26,313.06 Q425.78,312.06 425.23,311.10 Q424.73,310.23 423.89,310.09 Q423.06,309.94 421.17,310.54 L419.09,311.20 Q415.98,312.20 413.95,311.64 Q411.92,311.08 410.65,308.89 Q409.06,306.13 409.99,303.62 Q410.91,301.11 414.25,299.18 Q415.77,298.30 417.51,297.61 Q419.24,296.91 421.22,296.37 Z" fill="#FFFFFF"/>
</svg>
